<svg version="1.1" id="Layer_1" xmlns="http://www.w3.org/2000/svg" xmlns:xlink="http://www.w3.org/1999/xlink" x="0px" y="0px"
	 width="100%" viewBox="0 0 1080 1080" enable-background="new 0 0 1080 1080" xml:space="preserve">
<path fill="#000000" opacity="1.000000" stroke="none" 
	d="
M504.000000,1081.000000 
	C336.019318,1081.000000 168.538651,1081.000000 1.028993,1081.000000 
	C1.028993,721.060852 1.028993,361.121735 1.028993,1.091306 
	C360.897552,1.091306 720.795166,1.091306 1080.846436,1.091306 
	C1080.846436,360.999939 1080.846436,720.999939 1080.846436,1081.000000 
	C888.787903,1081.000000 696.643982,1081.000000 504.000000,1081.000000 
M623.086304,502.417053 
	C622.972534,502.139099 622.770813,501.960785 621.770081,501.744019 
	C618.489258,498.824493 615.208435,495.904968 612.010315,492.554352 
	C618.749329,488.400391 625.488342,484.246399 632.816528,480.094757 
	C633.224670,479.778046 633.632812,479.461334 634.110107,479.143494 
	C634.110107,479.143494 634.110657,479.074310 634.773560,479.105316 
	C635.530579,478.446472 636.287598,477.787628 637.097595,477.118011 
	C637.097595,477.118011 637.084961,477.065491 637.705200,477.066437 
	C638.155090,476.744690 638.604980,476.422913 639.061157,476.066040 
	C639.061157,476.066040 639.091370,476.085175 639.730408,476.114532 
	C640.474548,475.504822 641.218628,474.895081 642.237183,474.290436 
	C642.237183,474.290436 642.246643,474.016113 642.702759,474.003998 
	C643.016479,473.829590 643.127991,473.568726 643.205139,473.211578 
	C643.205139,473.211578 643.198669,473.043610 643.685242,472.994507 
	C644.009705,472.803253 644.135681,472.522858 644.144897,472.142151 
	C644.144897,472.142151 644.136047,472.060150 644.621094,471.999725 
	C644.951660,471.822266 645.090637,471.547821 645.263916,471.184387 
	C645.263916,471.184387 645.275574,470.958771 645.979919,470.730164 
	C646.259521,468.867401 646.539124,467.004608 646.934143,464.219574 
	C646.509644,460.542633 647.259155,456.058929 645.406799,453.363129 
	C641.962708,448.351044 631.433167,446.891663 625.305725,450.267517 
	C612.008728,457.593445 603.845032,469.555298 595.692505,481.869659 
	C595.476807,481.780548 595.261047,481.691437 595.160828,481.407959 
	C595.160828,481.407959 595.223083,481.190521 595.875366,480.816071 
	C596.242065,479.148438 596.608765,477.480804 597.105896,475.500549 
	C597.105896,475.500549 597.236938,475.188232 597.794739,474.933594 
	C597.882507,474.346069 597.970215,473.758545 598.251648,473.177277 
	C598.251648,473.177277 598.261353,472.983734 598.890869,472.781952 
	C598.940857,471.907715 598.990845,471.033508 599.306458,470.104065 
	C599.306458,470.104065 599.458313,469.879242 599.606079,469.874451 
	C599.606079,469.874451 599.746338,469.627411 599.941040,468.836823 
	C600.730286,466.911621 601.519531,464.986389 602.922302,462.785706 
	C603.598755,461.158691 604.275208,459.531677 605.079529,457.518768 
	C605.079529,457.518768 605.239807,457.145172 605.861267,456.847198 
	C608.262268,452.609558 610.663269,448.371918 613.150269,444.124817 
	C613.150269,444.124817 613.143066,444.038574 613.762634,443.867798 
	C614.198120,442.985352 614.633606,442.102875 615.269958,441.213501 
	C615.269958,441.213501 615.267029,441.012573 615.777771,440.940430 
	C615.841614,440.480530 615.905518,440.020660 616.461304,438.994171 
	C620.488831,433.327911 624.516357,427.661682 628.869690,421.845184 
	C629.066406,421.658630 629.130432,421.433899 629.202515,421.183899 
	C629.202515,421.183899 629.218628,421.043396 629.709290,420.998108 
	C630.033691,420.800568 630.156006,420.516144 630.152161,420.129089 
	C630.152161,420.129089 630.138733,420.052612 630.701904,419.847534 
	C630.820557,419.277802 630.939209,418.708069 631.161011,418.154266 
	C631.161011,418.154266 631.179382,418.051605 631.651917,418.035706 
	C631.985596,417.870148 632.112671,417.605408 632.267456,417.234131 
	C632.267456,417.234131 632.264282,416.999847 632.829529,416.875488 
	C632.881714,416.512024 632.933838,416.148560 633.119873,415.475952 
	C633.119873,415.475952 633.237366,415.160217 633.843262,414.851379 
	C635.255188,412.271820 636.667053,409.692261 638.116333,407.084412 
	C638.116333,407.084412 638.089478,407.045959 638.511475,406.976379 
	C638.816833,406.841583 638.941162,406.609894 638.972168,405.432465 
	C639.142517,404.645325 639.221802,403.824738 639.497009,403.076141 
	C642.877380,393.879944 639.023499,385.267731 633.457153,381.116760 
	C626.233398,375.729797 618.476501,375.473572 610.914062,379.826477 
	C607.294128,381.910095 604.490051,385.411133 601.240784,388.247955 
	C601.240784,388.247955 601.211670,388.375916 600.716858,388.766541 
	C600.573853,388.920471 600.430786,389.074402 599.868347,389.517365 
	C599.553955,390.311157 599.239563,391.104950 598.866089,391.896576 
	C598.866089,391.896576 598.866150,391.955658 598.180847,392.150360 
	C596.459106,395.641815 594.737366,399.133270 592.893799,403.225800 
	C592.848389,403.425110 592.802979,403.624451 592.123230,404.126495 
	C591.474915,405.965607 590.826599,407.804718 589.978271,410.280365 
	C589.888184,410.483704 589.798096,410.687073 589.156189,411.122803 
	C589.119324,411.692444 589.082397,412.262115 588.917847,413.321350 
	C588.874878,413.484467 588.831970,413.647552 588.121155,414.190887 
	C586.305359,420.625916 584.186707,426.994141 582.749573,433.512634 
	C580.899719,441.902588 579.596191,450.412994 578.008972,459.771667 
	C577.707825,462.432617 577.406616,465.093536 576.970398,468.255127 
	C576.488831,469.109009 576.007324,469.962860 575.125000,471.527344 
	C575.125000,460.821869 575.179077,451.040314 575.105835,441.259705 
	C575.057800,434.845459 574.825623,428.432556 574.139954,421.474121 
	C571.551636,418.333405 569.562256,414.153992 566.260742,412.250000 
	C556.987244,406.902069 548.518250,412.020721 542.906738,422.516663 
	C543.074158,431.025635 543.241577,439.534607 543.885864,448.765869 
	C544.546570,452.558502 545.322876,456.335571 545.837036,460.147980 
	C546.401428,464.332672 546.724182,468.549896 546.718140,472.192261 
	C540.577576,460.627167 535.335510,448.673004 523.283875,441.225983 
	C516.029663,436.743378 508.744080,436.197876 502.725983,440.384613 
	C497.557678,443.980225 491.691162,449.688538 494.094727,457.627960 
	C495.580200,462.534698 497.988953,467.534424 501.233307,471.458954 
	C508.049957,479.704712 515.690735,487.269165 522.674744,495.748932 
	C519.140137,500.275909 514.852234,504.406647 512.221069,509.408813 
	C505.930359,521.368347 501.486450,533.748596 503.785339,547.937805 
	C506.149323,562.528992 512.149414,575.173645 521.059875,586.659546 
	C521.659668,587.432739 523.024109,587.612732 524.151978,588.554565 
	C524.406189,588.767822 524.660339,588.981079 524.918823,589.875488 
	C525.578979,590.271790 526.239197,590.668152 526.833923,591.095337 
	C526.833923,591.095337 526.858704,591.163269 527.133728,591.789185 
	C539.391785,603.363464 554.481567,606.960327 570.932678,608.124878 
	C570.932678,587.690308 570.932678,568.111328 571.258728,548.001038 
	C571.296875,547.796875 571.335083,547.592773 571.566467,547.956970 
	C585.456055,563.081787 600.683167,576.756836 617.139404,591.008667 
	C621.855957,583.893982 626.913818,577.946106 630.052734,571.116333 
	C634.251404,561.980774 637.956543,552.377075 636.589233,541.325317 
	C635.761047,535.470947 634.932922,529.616577 633.519226,521.929871 
	C633.340088,521.314148 633.161011,520.698425 632.990112,519.760986 
	C632.685608,519.163757 632.381165,518.566528 632.168457,517.248413 
	C632.106873,517.014099 632.045349,516.779846 631.773865,516.242188 
	C631.236694,515.470154 630.699524,514.698181 630.080383,513.842285 
	C630.080383,513.842285 629.995178,513.922852 629.945068,513.330383 
	C629.665100,512.870911 629.385071,512.411377 629.099548,511.927887 
	C629.099548,511.927887 629.099915,511.903198 629.105225,511.275238 
	C628.802429,510.826721 628.499573,510.378204 628.157227,509.857208 
	C628.157227,509.857208 628.083740,509.894836 628.003113,509.262634 
	C627.376709,508.488617 626.750244,507.714630 626.110535,506.917755 
	C626.110535,506.917755 626.100891,506.893127 626.097473,506.231201 
	C625.427612,505.473175 624.757812,504.715149 624.068970,503.939789 
	C624.068970,503.939789 624.043396,503.937317 623.911133,503.465576 
	C623.726929,503.162262 623.458191,502.994659 623.166077,502.899414 
	C623.166077,502.899414 623.104065,502.836792 623.086304,502.417053 
M589.012390,333.303741 
	C588.825439,332.984192 588.549927,332.857910 588.273132,332.767059 
	C588.273132,332.767059 588.117188,332.676453 588.121094,332.082245 
	C587.611572,331.690430 587.101990,331.298584 586.345337,330.723877 
	C586.345337,330.723877 586.062195,330.843750 585.698608,330.137054 
	C581.450989,330.226715 577.203308,330.316376 572.338135,330.758698 
	C572.112427,330.831177 571.886719,330.903625 571.241943,331.149353 
	C570.835266,331.592072 570.428650,332.034790 569.809753,333.198090 
	C565.960999,338.902924 563.662170,344.865387 565.961487,351.906952 
	C566.511780,353.592163 566.111877,355.587677 566.486389,357.954315 
	C566.915039,358.984924 567.343689,360.015533 567.798584,361.156219 
	C567.798584,361.156219 567.909302,361.132690 567.906250,361.801239 
	C568.176208,362.538971 568.446228,363.276733 568.719360,364.176575 
	C568.719360,364.176575 568.881470,364.177155 568.863708,364.778687 
	C569.166931,365.202271 569.470215,365.625824 569.793762,366.163513 
	C569.793762,366.163513 569.908325,366.146118 569.917053,366.909729 
	C571.297119,369.627716 572.677185,372.345703 574.510986,375.196747 
	C574.510986,375.196747 574.983398,375.215912 575.290588,375.933472 
	C578.314209,376.836090 579.856873,375.456146 580.859985,372.674103 
	C582.234558,368.861938 583.986755,365.186951 585.399170,361.387024 
	C587.056702,356.927765 588.523438,352.397583 590.084534,346.947449 
	C590.083984,343.019470 590.083435,339.091522 590.123840,334.740448 
	C589.832336,334.472198 589.540771,334.203979 589.236206,333.772461 
	C589.236206,333.772461 589.072632,333.781708 589.012390,333.303741 
M521.055420,393.548096 
	C520.734070,392.627838 520.179321,391.720673 520.126892,390.785400 
	C519.526062,380.058014 515.399292,370.453949 510.521332,361.153229 
	C507.058319,354.550507 501.004852,350.649597 494.098083,348.889374 
	C491.314758,348.180023 487.828552,350.399628 484.625977,351.126434 
	C479.057800,352.390015 477.763763,356.517395 477.913849,361.344238 
	C478.128662,368.253662 481.968384,374.276489 486.752625,377.931274 
	C496.955078,385.725189 508.342957,391.967346 520.103577,399.386902 
	C520.608887,396.767456 520.837646,395.581696 521.055420,393.548096 
z"/>
<path fill="#DB2374" opacity="1.000000" stroke="none" 
	d="
M605.239807,457.145172 
	C605.239807,457.145172 605.079529,457.518768 604.711792,457.864868 
	C603.665588,459.827728 602.987183,461.444458 602.308777,463.061157 
	C601.519531,464.986389 600.730286,466.911621 599.797485,469.271973 
	C599.653992,469.707123 599.458313,469.879242 599.458313,469.879242 
	C599.458313,469.879242 599.306458,470.104065 599.012451,470.389526 
	C598.566101,471.444550 598.413757,472.214142 598.261353,472.983734 
	C598.261353,472.983734 598.251648,473.177277 597.997803,473.414001 
	C597.574951,474.163239 597.405945,474.675720 597.236938,475.188232 
	C597.236938,475.188232 597.105896,475.500549 596.721375,475.850647 
	C595.965576,477.863983 595.594299,479.527252 595.223083,481.190521 
	C595.223083,481.190521 595.160828,481.407959 594.838806,481.753845 
	C592.263855,489.288818 590.010925,496.477875 587.594482,504.071533 
	C584.411072,513.878967 584.531372,524.197571 578.990723,533.313904 
	C578.479126,534.165649 578.115845,534.612061 577.546265,534.759338 
	C576.908447,533.236084 576.175293,532.031921 576.092773,530.784729 
	C575.351196,519.578796 574.723938,508.365326 574.110718,496.963318 
	C575.140686,487.099884 576.123047,477.427185 577.105408,467.754486 
	C577.406616,465.093536 577.707825,462.432617 578.341431,459.156555 
	C581.373230,447.165588 584.108887,435.798126 586.750366,424.408813 
	C587.562500,420.906830 588.116821,417.345062 588.789185,413.810669 
	C588.831970,413.647552 588.874878,413.484467 589.186523,412.893311 
	C589.539490,411.940338 589.623779,411.415375 589.708008,410.890411 
	C589.798096,410.687073 589.888184,410.483704 590.369141,409.838989 
	C591.425842,407.539703 592.091675,405.681732 592.757446,403.823792 
	C592.802979,403.624451 592.848389,403.425110 593.260254,402.858185 
	C595.373230,398.978943 597.119690,395.467316 598.866150,391.955658 
	C598.866150,391.955658 598.866089,391.896576 599.165894,391.780518 
	C599.739746,390.852386 600.013733,390.040375 600.287720,389.228333 
	C600.430786,389.074402 600.573853,388.920471 600.983643,388.562866 
	C601.250366,388.359222 601.316467,388.270203 601.316467,388.270203 
	C604.490051,385.411133 607.294128,381.910095 610.914062,379.826477 
	C618.476501,375.473572 626.233398,375.729797 633.457153,381.116760 
	C639.023499,385.267731 642.877380,393.879944 639.497009,403.076141 
	C639.221802,403.824738 639.142517,404.645325 638.777466,405.961456 
	C638.405151,406.663910 638.240723,406.849091 638.089478,407.045959 
	C638.089478,407.045959 638.116333,407.084412 637.768066,407.167969 
	C636.025635,409.887756 634.631470,412.523987 633.237366,415.160217 
	C633.237366,415.160217 633.119873,415.475952 632.834595,415.768433 
	C632.454346,416.373901 632.359314,416.686859 632.264282,416.999847 
	C632.264282,416.999847 632.267456,417.234131 631.927490,417.263550 
	C631.303650,417.466309 631.167603,417.719208 631.179382,418.051605 
	C631.179382,418.051605 631.161011,418.154266 630.880127,418.310608 
	C630.445740,418.995514 630.292236,419.524078 630.138733,420.052612 
	C630.138733,420.052612 630.152161,420.129089 629.884460,420.186768 
	C629.309937,420.423981 629.177246,420.690277 629.218628,421.043396 
	C629.218628,421.043396 629.202515,421.183899 628.999023,421.286316 
	C628.622437,421.554047 628.538513,421.756287 628.543823,421.995422 
	C624.516357,427.661682 620.488831,433.327911 616.000488,439.364746 
	C615.448853,440.161102 615.357910,440.586823 615.267029,441.012573 
	C615.267029,441.012573 615.269958,441.213501 614.849121,441.240662 
	C613.999878,442.191406 613.571472,443.114990 613.143066,444.038574 
	C613.143066,444.038574 613.150269,444.124817 612.774536,444.175446 
	C610.012451,448.532440 607.626099,452.838806 605.239807,457.145172 
z"/>
<path fill="#E28633" opacity="1.000000" stroke="none" 
	d="
M570.932678,548.532349 
	C570.932678,568.111328 570.932678,587.690308 570.932678,608.124878 
	C554.481567,606.960327 539.391785,603.363464 527.378418,591.467896 
	C529.997864,592.291870 532.540161,593.184082 534.717896,594.626648 
	C543.454041,600.413879 552.761780,604.519043 563.347168,605.349182 
	C569.025818,605.794556 570.383850,604.844421 570.296448,599.271362 
	C570.041321,582.996948 569.633728,566.724854 569.238586,550.452942 
	C569.216980,549.562500 568.765320,548.682556 568.408020,547.425537 
	C567.345764,548.009155 566.561462,548.272156 565.992371,548.777405 
	C552.682190,560.596130 539.374146,572.417542 526.145874,584.327637 
	C525.136841,585.236145 524.723267,586.806091 524.032837,588.068604 
	C523.024109,587.612732 521.659668,587.432739 521.059875,586.659546 
	C512.149414,575.173645 506.149323,562.528992 503.785339,547.937805 
	C501.486450,533.748596 505.930359,521.368347 512.221069,509.408813 
	C514.852234,504.406647 519.140137,500.275909 523.183472,495.458313 
	C525.143982,496.211029 526.919617,496.994415 527.997742,498.337616 
	C539.539734,512.717224 550.907104,527.237610 562.539001,541.543213 
	C563.624878,542.878723 566.192383,543.009583 568.139282,543.991333 
	C569.115295,545.699341 570.023987,547.115845 570.932678,548.532349 
z"/>
<path fill="#1099BE" opacity="1.000000" stroke="none" 
	d="
M568.071960,543.699768 
	C566.192383,543.009583 563.624878,542.878723 562.539001,541.543213 
	C550.907104,527.237610 539.539734,512.717224 527.997742,498.337616 
	C526.919617,496.994415 525.143982,496.211029 523.342712,495.140503 
	C515.690735,487.269165 508.049957,479.704712 501.233307,471.458954 
	C497.988953,467.534424 495.580200,462.534698 494.094727,457.627960 
	C491.691162,449.688538 497.557678,443.980225 502.725983,440.384613 
	C508.744080,436.197876 516.029663,436.743378 523.283875,441.225983 
	C535.335510,448.673004 540.577576,460.627167 546.854004,472.764465 
	C550.792053,484.269684 554.991333,495.084473 558.290527,506.167206 
	C561.976929,518.551270 564.846680,531.178406 568.071960,543.699768 
z"/>
<path fill="#902C78" opacity="1.000000" stroke="none" 
	d="
M568.139282,543.991333 
	C564.846680,531.178406 561.976929,518.551270 558.290527,506.167206 
	C554.991333,495.084473 550.792053,484.269684 547.071045,473.044800 
	C546.724182,468.549896 546.401428,464.332672 545.837036,460.147980 
	C545.322876,456.335571 544.546570,452.558502 543.860474,447.983246 
	C543.690430,438.786896 543.545837,430.373169 543.401245,421.959442 
	C548.518250,412.020721 556.987244,406.902069 566.260742,412.250000 
	C569.562256,414.153992 571.551636,418.333405 574.078186,421.917603 
	C574.031982,447.292084 574.047485,472.223053 574.063049,497.154053 
	C574.723938,508.365326 575.351196,519.578796 576.092773,530.784729 
	C576.175293,532.031921 576.908447,533.236084 577.590454,535.096375 
	C576.566833,537.991211 575.292603,540.249878 573.738525,542.638794 
	C572.763550,544.308960 572.068420,545.848755 571.373230,547.388611 
	C571.335083,547.592773 571.296875,547.796875 571.095703,548.266724 
	C570.023987,547.115845 569.115295,545.699341 568.139282,543.991333 
z"/>
<path fill="#239552" opacity="1.000000" stroke="none" 
	d="
M574.018372,542.508484 
	C575.292603,540.249878 576.566833,537.991211 577.796814,535.395508 
	C578.115845,534.612061 578.479126,534.165649 579.247009,533.354370 
	C585.069458,524.719238 589.986633,516.055725 596.070923,508.308960 
	C600.568604,502.582306 606.586792,498.049896 611.927612,492.985443 
	C615.208435,495.904968 618.489258,498.824493 621.999268,502.070526 
	C622.520264,502.543610 622.812195,502.690216 623.104065,502.836792 
	C623.104065,502.836792 623.166077,502.899414 623.279236,503.104828 
	C623.617798,503.510590 623.834778,503.719635 624.043396,503.937317 
	C624.043396,503.937317 624.068970,503.939789 624.130371,504.267639 
	C624.828125,505.361389 625.464539,506.127258 626.100891,506.893127 
	C626.100891,506.893127 626.110535,506.917755 626.132446,507.240021 
	C626.797424,508.339813 627.440613,509.117340 628.083740,509.894836 
	C628.083740,509.894836 628.157227,509.857208 628.072998,510.198792 
	C628.359192,510.994690 628.729553,511.448944 629.099915,511.903198 
	C629.099915,511.903198 629.099548,511.927887 629.161377,512.214355 
	C629.480530,512.974792 629.737854,513.448853 629.995178,513.922852 
	C629.995178,513.922852 630.080383,513.842285 630.067932,514.214417 
	C630.698242,515.239563 631.341003,515.892517 631.983765,516.545532 
	C632.045349,516.779846 632.106873,517.014099 632.221191,517.821228 
	C632.509888,518.956970 632.745911,519.519836 632.981934,520.082764 
	C633.161011,520.698425 633.340088,521.314148 633.771484,523.017456 
	C634.836975,530.138245 635.650269,536.171570 635.916016,542.335083 
	C634.048340,542.583862 632.729736,542.784241 631.407776,542.808533 
	C613.677063,543.135010 595.946289,543.466064 578.214111,543.688049 
	C576.820740,543.705566 575.417175,542.920532 574.018372,542.508484 
z"/>
<path fill="#2A3D8D" opacity="1.000000" stroke="none" 
	d="
M573.738525,542.638794 
	C575.417175,542.920532 576.820740,543.705566 578.214111,543.688049 
	C595.946289,543.466064 613.677063,543.135010 631.407776,542.808533 
	C632.729736,542.784241 634.048340,542.583862 635.863159,542.409790 
	C636.338501,542.126160 636.429932,541.953979 636.632141,541.837891 
	C637.956543,552.377075 634.251404,561.980774 630.052734,571.116333 
	C626.913818,577.946106 621.855957,583.893982 617.139404,591.008667 
	C600.683167,576.756836 585.456055,563.081787 571.469849,547.672791 
	C572.068420,545.848755 572.763550,544.308960 573.738525,542.638794 
z"/>
<path fill="#DC3E41" opacity="1.000000" stroke="none" 
	d="
M611.968994,492.769897 
	C606.586792,498.049896 600.568604,502.582306 596.070923,508.308960 
	C589.986633,516.055725 585.069458,524.719238 579.395264,532.948975 
	C584.531372,524.197571 584.411072,513.878967 587.813354,503.912659 
	C590.911133,496.276611 593.626526,489.204071 596.341919,482.131531 
	C603.845032,469.555298 612.008728,457.593445 625.305725,450.267517 
	C631.433167,446.891663 641.962708,448.351044 645.406799,453.363129 
	C647.259155,456.058929 646.509644,460.542633 646.670410,464.949951 
	C646.029663,467.439789 645.652649,469.199280 645.275635,470.958771 
	C645.275574,470.958771 645.263916,471.184387 644.917847,471.222412 
	C644.273682,471.443665 644.128418,471.710236 644.136047,472.060150 
	C644.136047,472.060150 644.144897,472.142151 643.826294,472.122955 
	C643.404663,472.417053 643.301697,472.730316 643.198669,473.043610 
	C643.198669,473.043610 643.205139,473.211578 642.868408,473.178772 
	C642.436584,473.436005 642.341614,473.726044 642.246643,474.016113 
	C642.246643,474.016113 642.237183,474.290436 641.783569,474.147736 
	C640.583740,474.698425 639.837585,475.391785 639.091370,476.085175 
	C639.091370,476.085175 639.061157,476.066040 638.762207,476.082336 
	C638.003845,476.420959 637.544434,476.743225 637.084961,477.065491 
	C637.084961,477.065491 637.097595,477.118011 636.743408,477.068726 
	C635.629700,477.704407 634.870178,478.389374 634.110657,479.074310 
	C634.110657,479.074310 634.110107,479.143494 633.781494,479.086609 
	C633.044373,479.383972 632.635864,479.738190 632.227417,480.092407 
	C625.488342,484.246399 618.749329,488.400391 611.968994,492.769897 
z"/>
<path fill="#DC3E41" opacity="1.000000" stroke="none" 
	d="
M524.092407,588.311584 
	C524.723267,586.806091 525.136841,585.236145 526.145874,584.327637 
	C539.374146,572.417542 552.682190,560.596130 565.992371,548.777405 
	C566.561462,548.272156 567.345764,548.009155 568.408020,547.425537 
	C568.765320,548.682556 569.216980,549.562500 569.238586,550.452942 
	C569.633728,566.724854 570.041321,582.996948 570.296448,599.271362 
	C570.383850,604.844421 569.025818,605.794556 563.347168,605.349182 
	C552.761780,604.519043 543.454041,600.413879 534.717896,594.626648 
	C532.540161,593.184082 529.997864,592.291870 527.240967,591.154968 
	C526.858704,591.163269 526.833923,591.095337 526.832764,590.771362 
	C526.192627,590.029724 525.553589,589.612000 524.914551,589.194336 
	C524.660339,588.981079 524.406189,588.767822 524.092407,588.311584 
z"/>
<path fill="#E28633" opacity="1.000000" stroke="none" 
	d="
M521.060913,393.972015 
	C520.837646,395.581696 520.608887,396.767456 520.103577,399.386902 
	C508.342957,391.967346 496.955078,385.725189 486.752625,377.931274 
	C481.968384,374.276489 478.128662,368.253662 477.913849,361.344238 
	C477.763763,356.517395 479.057800,352.390015 484.625977,351.126434 
	C487.828552,350.399628 491.314758,348.180023 494.098083,348.889374 
	C501.004852,350.649597 507.058319,354.550507 510.521332,361.153229 
	C515.399292,370.453949 519.526062,380.058014 520.126892,390.785400 
	C520.179321,391.720673 520.734070,392.627838 521.060913,393.972015 
z"/>
<path fill="#902C78" opacity="1.000000" stroke="none" 
	d="
M571.661011,330.976074 
	C571.886719,330.903625 572.112427,330.831177 573.008972,330.756226 
	C577.807251,330.783783 581.934753,330.813751 586.062195,330.843750 
	C586.062195,330.843750 586.345337,330.723877 586.312256,331.092926 
	C586.891846,331.866791 587.504517,332.271637 588.117188,332.676453 
	C588.117188,332.676453 588.273132,332.767059 588.269409,333.080505 
	C588.442017,333.715942 588.710999,333.845215 589.072632,333.781708 
	C589.072632,333.781708 589.236206,333.772461 589.164612,334.103577 
	C589.422974,334.677673 589.752930,334.920593 590.082886,335.163544 
	C590.083435,339.091522 590.083984,343.019470 589.774780,347.397430 
	C585.963623,355.661865 582.562256,363.524017 578.877930,371.251221 
	C578.124084,372.832306 576.309204,373.907501 574.983398,375.215912 
	C574.983398,375.215912 574.510986,375.196747 574.447266,374.808533 
	C572.891785,371.662262 571.400085,368.904175 569.908325,366.146118 
	C569.908325,366.146118 569.793762,366.163513 569.862793,365.803955 
	C569.581665,365.022003 569.231567,364.599579 568.881470,364.177155 
	C568.881470,364.177155 568.719360,364.176575 568.871216,363.796631 
	C568.651794,362.655334 568.280579,361.894012 567.909302,361.132690 
	C567.909302,361.132690 567.798584,361.156219 567.862732,360.783020 
	C567.334290,359.420013 566.741699,358.430237 566.149048,357.440460 
	C566.111877,355.587677 566.511780,353.592163 565.961487,351.906952 
	C563.662170,344.865387 565.960999,338.902924 570.209656,332.919342 
	C570.960022,332.085754 571.310547,331.530914 571.661011,330.976074 
z"/>
<path fill="#E28633" opacity="1.000000" stroke="none" 
	d="
M574.110718,496.963318 
	C574.047485,472.223053 574.031982,447.292084 574.346191,422.190063 
	C574.825623,428.432556 575.057800,434.845459 575.105835,441.259705 
	C575.179077,451.040314 575.125000,460.821869 575.125000,471.527344 
	C576.007324,469.962860 576.488831,469.109009 577.037903,468.004822 
	C576.123047,477.427185 575.140686,487.099884 574.110718,496.963318 
z"/>
<path fill="#E28633" opacity="1.000000" stroke="none" 
	d="
M588.455200,414.000793 
	C588.116821,417.345062 587.562500,420.906830 586.750366,424.408813 
	C584.108887,435.798126 581.373230,447.165588 578.365601,458.706482 
	C579.596191,450.412994 580.899719,441.902588 582.749573,433.512634 
	C584.186707,426.994141 586.305359,420.625916 588.455200,414.000793 
z"/>
<path fill="#E28633" opacity="1.000000" stroke="none" 
	d="
M575.136963,375.574707 
	C576.309204,373.907501 578.124084,372.832306 578.877930,371.251221 
	C582.562256,363.524017 585.963623,355.661865 589.768921,347.872803 
	C588.523438,352.397583 587.056702,356.927765 585.399170,361.387024 
	C583.986755,365.186951 582.234558,368.861938 580.859985,372.674103 
	C579.856873,375.456146 578.314209,376.836090 575.136963,375.574707 
z"/>
<path fill="#E28633" opacity="1.000000" stroke="none" 
	d="
M596.017212,482.000610 
	C593.626526,489.204071 590.911133,496.276611 587.976807,503.508057 
	C590.010925,496.477875 592.263855,489.288818 594.781006,481.851044 
	C595.261047,481.691437 595.476807,481.780548 596.017212,482.000610 
z"/>
<path fill="#E28633" opacity="1.000000" stroke="none" 
	d="
M636.610718,541.581604 
	C636.429932,541.953979 636.338501,542.126160 636.410645,542.279541 
	C635.650269,536.171570 634.836975,530.138245 634.064209,523.933594 
	C634.932922,529.616577 635.761047,535.470947 636.610718,541.581604 
z"/>
<path fill="#E28633" opacity="1.000000" stroke="none" 
	d="
M543.153992,422.238037 
	C543.545837,430.373169 543.690430,438.786896 543.622009,447.622101 
	C543.241577,439.534607 543.074158,431.025635 543.153992,422.238037 
z"/>
<path fill="#E28633" opacity="1.000000" stroke="none" 
	d="
M605.550537,456.996185 
	C607.626099,452.838806 610.012451,448.532440 612.731506,444.180176 
	C610.663269,448.371918 608.262268,452.609558 605.550537,456.996185 
z"/>
<path fill="#E28633" opacity="1.000000" stroke="none" 
	d="
M598.523499,392.053009 
	C597.119690,395.467316 595.373230,398.978943 593.321167,402.557648 
	C594.737366,399.133270 596.459106,395.641815 598.523499,392.053009 
z"/>
<path fill="#E28633" opacity="1.000000" stroke="none" 
	d="
M585.880371,330.490387 
	C581.934753,330.813751 577.807251,330.783783 573.317749,330.579895 
	C577.203308,330.316376 581.450989,330.226715 585.880371,330.490387 
z"/>
<path fill="#E28633" opacity="1.000000" stroke="none" 
	d="
M569.912720,366.527924 
	C571.400085,368.904175 572.891785,371.662262 574.220398,374.742004 
	C572.677185,372.345703 571.297119,369.627716 569.912720,366.527924 
z"/>
<path fill="#E28633" opacity="1.000000" stroke="none" 
	d="
M633.540283,415.005798 
	C634.631470,412.523987 636.025635,409.887756 637.749390,407.182129 
	C636.667053,409.692261 635.255188,412.271820 633.540283,415.005798 
z"/>
<path fill="#E28633" opacity="1.000000" stroke="none" 
	d="
M592.440308,403.975128 
	C592.091675,405.681732 591.425842,407.539703 590.469177,409.520752 
	C590.826599,407.804718 591.474915,405.965607 592.440308,403.975128 
z"/>
<path fill="#E28633" opacity="1.000000" stroke="none" 
	d="
M602.615540,462.923431 
	C602.987183,461.444458 603.665588,459.827728 604.647827,458.057831 
	C604.275208,459.531677 603.598755,461.158691 602.615540,462.923431 
z"/>
<path fill="#E28633" opacity="1.000000" stroke="none" 
	d="
M645.627808,470.844482 
	C645.652649,469.199280 646.029663,467.439789 646.612732,465.411072 
	C646.539124,467.004608 646.259521,468.867401 645.627808,470.844482 
z"/>
<path fill="#E28633" opacity="1.000000" stroke="none" 
	d="
M595.549194,481.003296 
	C595.594299,479.527252 595.965576,477.863983 596.656128,476.006927 
	C596.608765,477.480804 596.242065,479.148438 595.549194,481.003296 
z"/>
<path fill="#E28633" opacity="1.000000" stroke="none" 
	d="
M631.878784,516.393860 
	C631.341003,515.892517 630.698242,515.239563 630.108887,514.256348 
	C630.699524,514.698181 631.236694,515.470154 631.878784,516.393860 
z"/>
<path fill="#E28633" opacity="1.000000" stroke="none" 
	d="
M639.410889,476.099854 
	C639.837585,475.391785 640.583740,474.698425 641.646362,474.145203 
	C641.218628,474.895081 640.474548,475.504822 639.410889,476.099854 
z"/>
<path fill="#E28633" opacity="1.000000" stroke="none" 
	d="
M626.099182,506.562164 
	C625.464539,506.127258 624.828125,505.361389 624.139893,504.276306 
	C624.757812,504.715149 625.427612,505.473175 626.099182,506.562164 
z"/>
<path fill="#E28633" opacity="1.000000" stroke="none" 
	d="
M628.043457,509.578735 
	C627.440613,509.117340 626.797424,508.339813 626.139038,507.251465 
	C626.750244,507.714630 627.376709,508.488617 628.043457,509.578735 
z"/>
<path fill="#E28633" opacity="1.000000" stroke="none" 
	d="
M613.452881,443.953186 
	C613.571472,443.114990 613.999878,442.191406 614.748718,441.244110 
	C614.633606,442.102875 614.198120,442.985352 613.452881,443.953186 
z"/>
<path fill="#E28633" opacity="1.000000" stroke="none" 
	d="
M566.317749,357.697388 
	C566.741699,358.430237 567.334290,359.420013 567.849609,360.727966 
	C567.343689,360.015533 566.915039,358.984924 566.317749,357.697388 
z"/>
<path fill="#E28633" opacity="1.000000" stroke="none" 
	d="
M600.078003,389.372864 
	C600.013733,390.040375 599.739746,390.852386 599.195435,391.781586 
	C599.239563,391.104950 599.553955,390.311157 600.078003,389.372864 
z"/>
<path fill="#E28633" opacity="1.000000" stroke="none" 
	d="
M524.916687,589.534912 
	C525.553589,589.612000 526.192627,590.029724 526.865479,590.755981 
	C526.239197,590.668152 525.578979,590.271790 524.916687,589.534912 
z"/>
<path fill="#E28633" opacity="1.000000" stroke="none" 
	d="
M588.119141,332.379333 
	C587.504517,332.271637 586.891846,331.866791 586.435791,331.184387 
	C587.101990,331.298584 587.611572,331.690430 588.119141,332.379333 
z"/>
<path fill="#E28633" opacity="1.000000" stroke="none" 
	d="
M632.985962,519.921875 
	C632.745911,519.519836 632.509888,518.956970 632.175293,518.181641 
	C632.381165,518.566528 632.685608,519.163757 632.985962,519.921875 
z"/>
<path fill="#E28633" opacity="1.000000" stroke="none" 
	d="
M634.442139,479.089813 
	C634.870178,478.389374 635.629700,477.704407 636.716919,477.074127 
	C636.287598,477.787628 635.530579,478.446472 634.442139,479.089813 
z"/>
<path fill="#E28633" opacity="1.000000" stroke="none" 
	d="
M571.451477,331.062714 
	C571.310547,331.530914 570.960022,332.085754 570.315796,332.559052 
	C570.428650,332.034790 570.835266,331.592072 571.451477,331.062714 
z"/>
<path fill="#E28633" opacity="1.000000" stroke="none" 
	d="
M598.576111,472.882843 
	C598.413757,472.214142 598.566101,471.444550 598.879639,470.417114 
	C598.990845,471.033508 598.940857,471.907715 598.576111,472.882843 
z"/>
<path fill="#E28633" opacity="1.000000" stroke="none" 
	d="
M567.907776,361.466980 
	C568.280579,361.894012 568.651794,362.655334 568.869629,363.715576 
	C568.446228,363.276733 568.176208,362.538971 567.907776,361.466980 
z"/>
<path fill="#E28633" opacity="1.000000" stroke="none" 
	d="
M632.521973,480.093567 
	C632.635864,479.738190 633.044373,479.383972 633.746948,479.087158 
	C633.632812,479.461334 633.224670,479.778046 632.521973,480.093567 
z"/>
<path fill="#E28633" opacity="1.000000" stroke="none" 
	d="
M590.103394,334.951996 
	C589.752930,334.920593 589.422974,334.677673 589.171143,334.185242 
	C589.540771,334.203979 589.832336,334.472198 590.103394,334.951996 
z"/>
<path fill="#E28633" opacity="1.000000" stroke="none" 
	d="
M629.970093,513.626587 
	C629.737854,513.448853 629.480530,512.974792 629.164124,512.226379 
	C629.385071,512.411377 629.665100,512.870911 629.970093,513.626587 
z"/>
<path fill="#E28633" opacity="1.000000" stroke="none" 
	d="
M629.102539,511.589233 
	C628.729553,511.448944 628.359192,510.994690 628.092773,510.235046 
	C628.499573,510.378204 628.802429,510.826721 629.102539,511.589233 
z"/>
<path fill="#E28633" opacity="1.000000" stroke="none" 
	d="
M568.872559,364.477905 
	C569.231567,364.599579 569.581665,365.022003 569.852600,365.746887 
	C569.470215,365.625824 569.166931,365.202271 568.872559,364.477905 
z"/>
<path fill="#E28633" opacity="1.000000" stroke="none" 
	d="
M615.522400,440.976501 
	C615.357910,440.586823 615.448853,440.161102 615.754517,439.648071 
	C615.905518,440.020660 615.841614,440.480530 615.522400,440.976501 
z"/>
<path fill="#E28633" opacity="1.000000" stroke="none" 
	d="
M589.432129,411.006592 
	C589.623779,411.415375 589.539490,411.940338 589.250366,412.648499 
	C589.082397,412.262115 589.119324,411.692444 589.432129,411.006592 
z"/>
<path fill="#E28633" opacity="1.000000" stroke="none" 
	d="
M630.420288,419.950073 
	C630.292236,419.524078 630.445740,418.995514 630.828552,418.302673 
	C630.939209,418.708069 630.820557,419.277802 630.420288,419.950073 
z"/>
<path fill="#E28633" opacity="1.000000" stroke="none" 
	d="
M597.515869,475.060913 
	C597.405945,474.675720 597.574951,474.163239 597.900940,473.410889 
	C597.970215,473.758545 597.882507,474.346069 597.515869,475.060913 
z"/>
<path fill="#E28633" opacity="1.000000" stroke="none" 
	d="
M637.395081,477.065979 
	C637.544434,476.743225 638.003845,476.420959 638.759094,476.099915 
	C638.604980,476.422913 638.155090,476.744690 637.395081,477.065979 
z"/>
<path fill="#E28633" opacity="1.000000" stroke="none" 
	d="
M643.441956,473.019043 
	C643.301697,472.730316 643.404663,472.417053 643.785400,472.128540 
	C644.135681,472.522858 644.009705,472.803253 643.441956,473.019043 
z"/>
<path fill="#E28633" opacity="1.000000" stroke="none" 
	d="
M628.706787,421.920288 
	C628.538513,421.756287 628.622437,421.554047 628.928589,421.279877 
	C629.130432,421.433899 629.066406,421.658630 628.706787,421.920288 
z"/>
<path fill="#E28633" opacity="1.000000" stroke="none" 
	d="
M629.463989,421.020752 
	C629.177246,420.690277 629.309937,420.423981 629.846436,420.194641 
	C630.156006,420.516144 630.033691,420.800568 629.463989,421.020752 
z"/>
<path fill="#E28633" opacity="1.000000" stroke="none" 
	d="
M589.042480,333.542725 
	C588.710999,333.845215 588.442017,333.715942 588.225769,333.159393 
	C588.549927,332.857910 588.825439,332.984192 589.042480,333.542725 
z"/>
<path fill="#E28633" opacity="1.000000" stroke="none" 
	d="
M631.415649,418.043640 
	C631.167603,417.719208 631.303650,417.466309 631.810364,417.267212 
	C632.112671,417.605408 631.985596,417.870148 631.415649,418.043640 
z"/>
<path fill="#E28633" opacity="1.000000" stroke="none" 
	d="
M632.546875,416.937683 
	C632.359314,416.686859 632.454346,416.373901 632.767700,415.923035 
	C632.933838,416.148560 632.881714,416.512024 632.546875,416.937683 
z"/>
<path fill="#E28633" opacity="1.000000" stroke="none" 
	d="
M599.532227,469.876831 
	C599.458313,469.879242 599.653992,469.707123 599.700195,469.667267 
	C599.746338,469.627411 599.606079,469.874451 599.532227,469.876831 
z"/>
<path fill="#E28633" opacity="1.000000" stroke="none" 
	d="
M644.378540,472.029938 
	C644.128418,471.710236 644.273682,471.443665 644.804993,471.218384 
	C645.090637,471.547821 644.951660,471.822266 644.378540,472.029938 
z"/>
<path fill="#E28633" opacity="1.000000" stroke="none" 
	d="
M642.474731,474.010071 
	C642.341614,473.726044 642.436584,473.436005 642.784424,473.183685 
	C643.127991,473.568726 643.016479,473.829590 642.474731,474.010071 
z"/>
<path fill="#E28633" opacity="1.000000" stroke="none" 
	d="
M623.977295,503.701447 
	C623.834778,503.719635 623.617798,503.510590 623.248596,503.136505 
	C623.458191,502.994659 623.726929,503.162262 623.977295,503.701447 
z"/>
<path fill="#E28633" opacity="1.000000" stroke="none" 
	d="
M623.095215,502.626923 
	C622.812195,502.690216 622.520264,502.543610 622.354736,502.139587 
	C622.770813,501.960785 622.972534,502.139099 623.095215,502.626923 
z"/>
<path fill="#E28633" opacity="1.000000" stroke="none" 
	d="
M601.278625,388.259094 
	C601.316467,388.270203 601.250366,388.359222 601.231018,388.367554 
	C601.211670,388.375916 601.240784,388.247955 601.278625,388.259094 
z"/>
<path fill="#E28633" opacity="1.000000" stroke="none" 
	d="
M638.300476,407.011169 
	C638.240723,406.849091 638.405151,406.663910 638.733582,406.385864 
	C638.941162,406.609894 638.816833,406.841583 638.300476,407.011169 
z"/>
</svg>